<svg width="48" height="48" viewBox="0 0 48 48" fill="none" xmlns="http://www.w3.org/2000/svg">
<path fill-rule="evenodd" clip-rule="evenodd" d="M35.2756 14.5585V14.5585C34.5296 14.5585 33.8536 14.1343 33.5356 13.4712C32.9616 12.2715 32.2316 10.7382 31.7996 9.90349C31.1616 8.66229 30.1276 7.94006 28.6956 7.93019C28.6716 7.92822 19.3276 7.92822 19.3036 7.93019C17.8716 7.94006 16.8396 8.66229 16.1996 9.90349C15.7696 10.7382 15.0396 12.2715 14.4656 13.4712C14.1476 14.1343 13.4696 14.5585 12.7256 14.5585V14.5585C8.73363 14.5585 5.49963 17.7494 5.49963 21.6861V33.3996C5.49963 37.3344 8.73363 40.5272 12.7256 40.5272H35.2756C39.2656 40.5272 42.4996 37.3344 42.4996 33.3996V21.6861C42.4996 17.7494 39.2656 14.5585 35.2756 14.5585Z" stroke="#020105" stroke-width="1.5" stroke-linecap="round" stroke-linejoin="round"/>
<path fill-rule="evenodd" clip-rule="evenodd" d="M17.6428 26.8416C17.6408 30.3008 20.5028 33.1305 24.0028 33.1285C27.4968 33.1246 30.3508 30.3067 30.3568 26.8554C30.3628 23.3902 27.5108 20.5665 24.0068 20.5625C20.4828 20.5586 17.6148 23.4297 17.6428 26.8416Z" stroke="#020105" stroke-width="1.5" stroke-linecap="round" stroke-linejoin="round"/>
<path d="M33.805 22.225C33.6118 22.2054 33.4209 22.1557 33.2072 22.0708C32.9694 21.9666 32.7636 21.834 32.5646 21.6345C32.207 21.2593 32 20.7686 32 20.2623C32 19.9934 32.0557 19.7269 32.1645 19.4855C32.2736 19.2409 32.4028 19.0346 32.6364 18.8101C32.814 18.6575 32.996 18.5346 33.2448 18.4265C33.9826 18.138 34.8602 18.3104 35.4087 18.8513C35.573 19.0111 35.7115 19.2039 35.7883 19.3665L35.8338 19.4818C35.9443 19.7269 36 19.9934 36 20.2623C36 20.7788 35.7956 21.2565 35.4163 21.6541C35.0884 21.9798 34.6578 22.18 34.1984 22.225L34 22.2347L33.805 22.225Z" fill="#020105"/>
</svg>
